<svg width="26" height="26" viewBox="0 0 26 26" fill="none" xmlns="http://www.w3.org/2000/svg">
<path d="M13.1906 8.64704C10.8968 8.64704 9.02495 10.5189 9.02495 12.8127C9.02495 15.1064 10.8968 16.9783 13.1906 16.9783C15.4843 16.9783 17.3562 15.1064 17.3562 12.8127C17.3562 10.5189 15.4843 8.64704 13.1906 8.64704ZM25.6843 12.8127C25.6843 11.0877 25.7 9.37829 25.6031 7.65641C25.5062 5.65641 25.05 3.88141 23.5875 2.41891C22.1218 0.953285 20.35 0.50016 18.35 0.403285C16.625 0.30641 14.9156 0.322035 13.1937 0.322035C11.4687 0.322035 9.75933 0.30641 8.03745 0.403285C6.03745 0.50016 4.26245 0.95641 2.79995 2.41891C1.33433 3.88454 0.881203 5.65641 0.784328 7.65641C0.687453 9.38141 0.703078 11.0908 0.703078 12.8127C0.703078 14.5345 0.687453 16.247 0.784328 17.9689C0.881203 19.9689 1.33745 21.7439 2.79995 23.2064C4.26558 24.672 6.03745 25.1252 8.03745 25.222C9.76245 25.3189 11.4718 25.3033 13.1937 25.3033C14.9187 25.3033 16.6281 25.3189 18.35 25.222C20.35 25.1252 22.125 24.6689 23.5875 23.2064C25.0531 21.7408 25.5062 19.9689 25.6031 17.9689C25.7031 16.247 25.6843 14.5377 25.6843 12.8127ZM13.1906 19.222C9.6437 19.222 6.7812 16.3595 6.7812 12.8127C6.7812 9.26579 9.6437 6.40329 13.1906 6.40329C16.7375 6.40329 19.6 9.26579 19.6 12.8127C19.6 16.3595 16.7375 19.222 13.1906 19.222ZM19.8625 7.63766C19.0343 7.63766 18.3656 6.96891 18.3656 6.14079C18.3656 5.31266 19.0343 4.64391 19.8625 4.64391C20.6906 4.64391 21.3593 5.31266 21.3593 6.14079C21.3596 6.33743 21.321 6.53219 21.2459 6.71391C21.1707 6.89563 21.0605 7.06074 20.9215 7.19979C20.7824 7.33883 20.6173 7.44908 20.4356 7.52422C20.2539 7.59936 20.0591 7.63791 19.8625 7.63766Z" fill="white"/>
</svg>
