<svg width="29" height="32" viewBox="0 0 29 32" fill="none" xmlns="http://www.w3.org/2000/svg">
<path d="M26.9617 22.6283V26.7533C26.9631 27.1362 26.8918 27.5153 26.7523 27.8661C26.6129 28.217 26.4083 28.532 26.1518 28.7909C25.8953 29.0497 25.5924 29.2468 25.2626 29.3695C24.9329 29.4922 24.5834 29.5378 24.2367 29.5033C20.3903 29.0435 16.6955 27.5977 13.4492 25.282C10.429 23.171 7.86838 20.3543 5.94921 17.032C3.83668 13.4449 2.52201 9.36091 2.11171 5.11079C2.08047 4.73056 2.12155 4.34734 2.23233 3.98553C2.34312 3.62371 2.52117 3.29124 2.75517 3.00927C2.98916 2.7273 3.27396 2.50202 3.59145 2.34776C3.90893 2.1935 4.25213 2.11365 4.59921 2.11329H8.34921C8.95584 2.10672 9.54395 2.34303 10.0039 2.77815C10.4639 3.21327 10.7643 3.81753 10.8492 4.47829C11.0075 5.79838 11.301 7.09454 11.7242 8.34204C11.8924 8.83419 11.9288 9.36905 11.8291 9.88325C11.7294 10.3975 11.4978 10.8694 11.1617 11.2433L9.57421 12.9895C11.3537 16.4319 13.9448 19.2822 17.0742 21.2395L18.6617 19.4933C19.0016 19.1236 19.4307 18.8688 19.8981 18.7592C20.3656 18.6495 20.8518 18.6895 21.2992 18.8745C22.4333 19.34 23.6116 19.6629 24.8117 19.837C25.4189 19.9313 25.9735 20.2677 26.3699 20.7823C26.7663 21.297 26.9769 21.954 26.9617 22.6283Z" stroke="#FF841D" stroke-width="3" stroke-linecap="round" stroke-linejoin="round"/>
</svg>
