<svg width="27" height="22" viewBox="0 0 27 22" fill="none" xmlns="http://www.w3.org/2000/svg">
<path d="M26.1906 2.75939C25.2344 3.17189 24.1937 3.46876 23.1219 3.58439C24.2347 2.92325 25.0681 1.87876 25.4656 0.646888C24.4214 1.2681 23.2774 1.70371 22.0844 1.93439C21.5858 1.40135 20.9827 0.9767 20.3128 0.686911C19.6429 0.397123 18.9205 0.248401 18.1906 0.250013C15.2375 0.250013 12.8625 2.64376 12.8625 5.58126C12.8625 5.99376 12.9125 6.40626 12.9938 6.80314C8.57188 6.57189 4.62813 4.45939 2.00625 1.22501C1.52852 2.041 1.27817 2.97009 1.28125 3.91564C1.28125 5.76564 2.22187 7.39689 3.65625 8.35626C2.81095 8.32297 1.98545 8.09063 1.24688 7.67814V7.74376C1.24688 10.3344 3.07813 12.4813 5.51875 12.975C5.0605 13.094 4.58908 13.1549 4.11563 13.1563C3.76875 13.1563 3.44062 13.1219 3.10937 13.075C3.78437 15.1875 5.75 16.7219 8.09062 16.7719C6.25937 18.2063 3.96563 19.05 1.475 19.05C1.02813 19.05 0.615625 19.0344 0.1875 18.9844C2.55 20.5 5.35312 21.375 8.37187 21.375C18.1719 21.375 23.5344 13.2563 23.5344 6.20939C23.5344 5.97814 23.5344 5.74689 23.5187 5.51564C24.5562 4.75626 25.4656 3.81564 26.1906 2.75939Z" fill="white"/>
</svg>
